<?xml version="1.0" standalone="no"?>
<!DOCTYPE svg PUBLIC "-//W3C//DTD SVG 1.1//EN" "http://www.w3.org/Graphics/SVG/1.1/DTD/svg11.dtd">
<svg version="1.1" width="1200" height="534" onload="init(evt)" viewBox="0 0 1200 534" xmlns="http://www.w3.org/2000/svg" xmlns:xlink="http://www.w3.org/1999/xlink">
<!-- Flame graph stack visualization. See https://github.com/brendangregg/FlameGraph for latest version, and http://www.brendangregg.com/flamegraphs.html for examples. -->
<!-- NOTES:  -->
<defs>
	<linearGradient id="background" y1="0" y2="1" x1="0" x2="0" >
		<stop stop-color="#eeeeee" offset="5%" />
		<stop stop-color="#eeeeb0" offset="95%" />
	</linearGradient>
</defs>
<style type="text/css">
	text { font-family:Verdana; font-size:12px; fill:rgb(0,0,0); }
	#search, #ignorecase { opacity:0.1; cursor:pointer; }
	#search:hover, #search.show, #ignorecase:hover, #ignorecase.show { opacity:1; }
	#subtitle { text-anchor:middle; font-color:rgb(160,160,160); }
	#title { text-anchor:middle; font-size:17px}
	#unzoom { cursor:pointer; }
	#frames > *:hover { stroke:black; stroke-width:0.5; cursor:pointer; }
	.hide { display:none; }
	.parent { opacity:0.5; }
</style>
<script type="text/ecmascript">
<![CDATA[
	"use strict";
	var details, searchbtn, unzoombtn, matchedtxt, svg, searching, currentSearchTerm, ignorecase, ignorecaseBtn;
	function init(evt) {
		details = document.getElementById("details").firstChild;
		searchbtn = document.getElementById("search");
		ignorecaseBtn = document.getElementById("ignorecase");
		unzoombtn = document.getElementById("unzoom");
		matchedtxt = document.getElementById("matched");
		svg = document.getElementsByTagName("svg")[0];
		searching = 0;
		currentSearchTerm = null;

		// use GET parameters to restore a flamegraphs state.
		var params = get_params();
		if (params.x && params.y)
			zoom(find_group(document.querySelector('[x="' + params.x + '"][y="' + params.y + '"]')));
                if (params.s) search(params.s);
	}

	// event listeners
	window.addEventListener("click", function(e) {
		var target = find_group(e.target);
		if (target) {
			if (target.nodeName == "a") {
				if (e.ctrlKey === false) return;
				e.preventDefault();
			}
			if (target.classList.contains("parent")) unzoom(true);
			zoom(target);
			if (!document.querySelector('.parent')) {
				// we have basically done a clearzoom so clear the url
				var params = get_params();
				if (params.x) delete params.x;
				if (params.y) delete params.y;
				history.replaceState(null, null, parse_params(params));
				unzoombtn.classList.add("hide");
				return;
			}

			// set parameters for zoom state
			var el = target.querySelector("rect");
			if (el && el.attributes && el.attributes.y && el.attributes._orig_x) {
				var params = get_params()
				params.x = el.attributes._orig_x.value;
				params.y = el.attributes.y.value;
				history.replaceState(null, null, parse_params(params));
			}
		}
		else if (e.target.id == "unzoom") clearzoom();
		else if (e.target.id == "search") search_prompt();
		else if (e.target.id == "ignorecase") toggle_ignorecase();
	}, false)

	// mouse-over for info
	// show
	window.addEventListener("mouseover", function(e) {
		var target = find_group(e.target);
		if (target) details.nodeValue = "Function: " + g_to_text(target);
	}, false)

	// clear
	window.addEventListener("mouseout", function(e) {
		var target = find_group(e.target);
		if (target) details.nodeValue = ' ';
	}, false)

	// ctrl-F for search
	// ctrl-I to toggle case-sensitive search
	window.addEventListener("keydown",function (e) {
		if (e.keyCode === 114 || (e.ctrlKey && e.keyCode === 70)) {
			e.preventDefault();
			search_prompt();
		}
		else if (e.ctrlKey && e.keyCode === 73) {
			e.preventDefault();
			toggle_ignorecase();
		}
	}, false)

	// functions
	function get_params() {
		var params = {};
		var paramsarr = window.location.search.substr(1).split('&');
		for (var i = 0; i < paramsarr.length; ++i) {
			var tmp = paramsarr[i].split("=");
			if (!tmp[0] || !tmp[1]) continue;
			params[tmp[0]]  = decodeURIComponent(tmp[1]);
		}
		return params;
	}
	function parse_params(params) {
		var uri = "?";
		for (var key in params) {
			uri += key + '=' + encodeURIComponent(params[key]) + '&';
		}
		if (uri.slice(-1) == "&")
			uri = uri.substring(0, uri.length - 1);
		if (uri == '?')
			uri = window.location.href.split('?')[0];
		return uri;
	}
	function find_child(node, selector) {
		var children = node.querySelectorAll(selector);
		if (children.length) return children[0];
	}
	function find_group(node) {
		var parent = node.parentElement;
		if (!parent) return;
		if (parent.id == "frames") return node;
		return find_group(parent);
	}
	function orig_save(e, attr, val) {
		if (e.attributes["_orig_" + attr] != undefined) return;
		if (e.attributes[attr] == undefined) return;
		if (val == undefined) val = e.attributes[attr].value;
		e.setAttribute("_orig_" + attr, val);
	}
	function orig_load(e, attr) {
		if (e.attributes["_orig_"+attr] == undefined) return;
		e.attributes[attr].value = e.attributes["_orig_" + attr].value;
		e.removeAttribute("_orig_"+attr);
	}
	function g_to_text(e) {
		var text = find_child(e, "title").firstChild.nodeValue;
		return (text)
	}
	function g_to_func(e) {
		var func = g_to_text(e);
		// if there's any manipulation we want to do to the function
		// name before it's searched, do it here before returning.
		return (func);
	}
	function update_text(e) {
		var r = find_child(e, "rect");
		var t = find_child(e, "text");
		var w = parseFloat(r.attributes.width.value) -3;
		var txt = find_child(e, "title").textContent.replace(/\([^(]*\)$/,"");
		t.attributes.x.value = parseFloat(r.attributes.x.value) + 3;

		// Smaller than this size won't fit anything
		if (w < 2 * 12 * 0.59) {
			t.textContent = "";
			return;
		}

		t.textContent = txt;
		var sl = t.getSubStringLength(0, txt.length);
		// check if only whitespace or if we can fit the entire string into width w
		if (/^ *$/.test(txt) || sl < w)
			return;

		// this isn't perfect, but gives a good starting point
		// and avoids calling getSubStringLength too often
		var start = Math.floor((w/sl) * txt.length);
		for (var x = start; x > 0; x = x-2) {
			if (t.getSubStringLength(0, x + 2) <= w) {
				t.textContent = txt.substring(0, x) + "..";
				return;
			}
		}
		t.textContent = "";
	}

	// zoom
	function zoom_reset(e) {
		if (e.attributes != undefined) {
			orig_load(e, "x");
			orig_load(e, "width");
		}
		if (e.childNodes == undefined) return;
		for (var i = 0, c = e.childNodes; i < c.length; i++) {
			zoom_reset(c[i]);
		}
	}
	function zoom_child(e, x, ratio) {
		if (e.attributes != undefined) {
			if (e.attributes.x != undefined) {
				orig_save(e, "x");
				e.attributes.x.value = (parseFloat(e.attributes.x.value) - x - 10) * ratio + 10;
				if (e.tagName == "text")
					e.attributes.x.value = find_child(e.parentNode, "rect[x]").attributes.x.value + 3;
			}
			if (e.attributes.width != undefined) {
				orig_save(e, "width");
				e.attributes.width.value = parseFloat(e.attributes.width.value) * ratio;
			}
		}

		if (e.childNodes == undefined) return;
		for (var i = 0, c = e.childNodes; i < c.length; i++) {
			zoom_child(c[i], x - 10, ratio);
		}
	}
	function zoom_parent(e) {
		if (e.attributes) {
			if (e.attributes.x != undefined) {
				orig_save(e, "x");
				e.attributes.x.value = 10;
			}
			if (e.attributes.width != undefined) {
				orig_save(e, "width");
				e.attributes.width.value = parseInt(svg.width.baseVal.value) - (10 * 2);
			}
		}
		if (e.childNodes == undefined) return;
		for (var i = 0, c = e.childNodes; i < c.length; i++) {
			zoom_parent(c[i]);
		}
	}
	function zoom(node) {
		var attr = find_child(node, "rect").attributes;
		var width = parseFloat(attr.width.value);
		var xmin = parseFloat(attr.x.value);
		var xmax = parseFloat(xmin + width);
		var ymin = parseFloat(attr.y.value);
		var ratio = (svg.width.baseVal.value - 2 * 10) / width;

		// XXX: Workaround for JavaScript float issues (fix me)
		var fudge = 0.0001;

		unzoombtn.classList.remove("hide");

		var el = document.getElementById("frames").children;
		for (var i = 0; i < el.length; i++) {
			var e = el[i];
			var a = find_child(e, "rect").attributes;
			var ex = parseFloat(a.x.value);
			var ew = parseFloat(a.width.value);
			var upstack;
			// Is it an ancestor
			if (0 == 0) {
				upstack = parseFloat(a.y.value) > ymin;
			} else {
				upstack = parseFloat(a.y.value) < ymin;
			}
			if (upstack) {
				// Direct ancestor
				if (ex <= xmin && (ex+ew+fudge) >= xmax) {
					e.classList.add("parent");
					zoom_parent(e);
					update_text(e);
				}
				// not in current path
				else
					e.classList.add("hide");
			}
			// Children maybe
			else {
				// no common path
				if (ex < xmin || ex + fudge >= xmax) {
					e.classList.add("hide");
				}
				else {
					zoom_child(e, xmin, ratio);
					update_text(e);
				}
			}
		}
		search();
	}
	function unzoom(dont_update_text) {
		unzoombtn.classList.add("hide");
		var el = document.getElementById("frames").children;
		for(var i = 0; i < el.length; i++) {
			el[i].classList.remove("parent");
			el[i].classList.remove("hide");
			zoom_reset(el[i]);
			if(!dont_update_text) update_text(el[i]);
		}
		search();
	}
	function clearzoom() {
		unzoom();

		// remove zoom state
		var params = get_params();
		if (params.x) delete params.x;
		if (params.y) delete params.y;
		history.replaceState(null, null, parse_params(params));
	}

	// search
	function toggle_ignorecase() {
		ignorecase = !ignorecase;
		if (ignorecase) {
			ignorecaseBtn.classList.add("show");
		} else {
			ignorecaseBtn.classList.remove("show");
		}
		reset_search();
		search();
	}
	function reset_search() {
		var el = document.querySelectorAll("#frames rect");
		for (var i = 0; i < el.length; i++) {
			orig_load(el[i], "fill")
		}
		var params = get_params();
		delete params.s;
		history.replaceState(null, null, parse_params(params));
	}
	function search_prompt() {
		if (!searching) {
			var term = prompt("Enter a search term (regexp " +
			    "allowed, eg: ^ext4_)"
			    + (ignorecase ? ", ignoring case" : "")
			    + "\nPress Ctrl-i to toggle case sensitivity", "");
			if (term != null) search(term);
		} else {
			reset_search();
			searching = 0;
			currentSearchTerm = null;
			searchbtn.classList.remove("show");
			searchbtn.firstChild.nodeValue = "Search"
			matchedtxt.classList.add("hide");
			matchedtxt.firstChild.nodeValue = ""
		}
	}
	function search(term) {
		if (term) currentSearchTerm = term;

		var re = new RegExp(currentSearchTerm, ignorecase ? 'i' : '');
		var el = document.getElementById("frames").children;
		var matches = new Object();
		var maxwidth = 0;
		for (var i = 0; i < el.length; i++) {
			var e = el[i];
			var func = g_to_func(e);
			var rect = find_child(e, "rect");
			if (func == null || rect == null)
				continue;

			// Save max width. Only works as we have a root frame
			var w = parseFloat(rect.attributes.width.value);
			if (w > maxwidth)
				maxwidth = w;

			if (func.match(re)) {
				// highlight
				var x = parseFloat(rect.attributes.x.value);
				orig_save(rect, "fill");
				rect.attributes.fill.value = "rgb(230,0,230)";

				// remember matches
				if (matches[x] == undefined) {
					matches[x] = w;
				} else {
					if (w > matches[x]) {
						// overwrite with parent
						matches[x] = w;
					}
				}
				searching = 1;
			}
		}
		if (!searching)
			return;
		var params = get_params();
		params.s = currentSearchTerm;
		history.replaceState(null, null, parse_params(params));

		searchbtn.classList.add("show");
		searchbtn.firstChild.nodeValue = "Reset Search";

		// calculate percent matched, excluding vertical overlap
		var count = 0;
		var lastx = -1;
		var lastw = 0;
		var keys = Array();
		for (k in matches) {
			if (matches.hasOwnProperty(k))
				keys.push(k);
		}
		// sort the matched frames by their x location
		// ascending, then width descending
		keys.sort(function(a, b){
			return a - b;
		});
		// Step through frames saving only the biggest bottom-up frames
		// thanks to the sort order. This relies on the tree property
		// where children are always smaller than their parents.
		var fudge = 0.0001;	// JavaScript floating point
		for (var k in keys) {
			var x = parseFloat(keys[k]);
			var w = matches[keys[k]];
			if (x >= lastx + lastw - fudge) {
				count += w;
				lastx = x;
				lastw = w;
			}
		}
		// display matched percent
		matchedtxt.classList.remove("hide");
		var pct = 100 * count / maxwidth;
		if (pct != 100) pct = pct.toFixed(1)
		matchedtxt.firstChild.nodeValue = "Matched: " + pct + "%";
	}
]]>
</script>
<rect x="0.0" y="0" width="1200.0" height="534.0" fill="url(#background)"  />
<text id="title" x="600.00" y="24" >Flame Graph</text>
<text id="details" x="10.00" y="517" > </text>
<text id="unzoom" x="10.00" y="24" class="hide">Reset Zoom</text>
<text id="search" x="1090.00" y="24" >Search</text>
<text id="ignorecase" x="1174.00" y="24" >ic</text>
<text id="matched" x="1090.00" y="517" > </text>
<g id="frames">
<g >
<title>common_interrupt (141,414,140 samples, 0.01%)</title><rect x="1176.7" y="213" width="0.1" height="15.0" fill="rgb(215,46,11)" rx="2" ry="2" />
<text  x="1179.67" y="223.5" ></text>
</g>
<g >
<title>exit_to_user_mode_loop (131,313,130 samples, 0.01%)</title><rect x="1176.7" y="149" width="0.1" height="15.0" fill="rgb(224,90,21)" rx="2" ry="2" />
<text  x="1179.68" y="159.5" ></text>
</g>
<g >
<title>rh_timer_func (212,121,210 samples, 0.02%)</title><rect x="1177.1" y="101" width="0.3" height="15.0" fill="rgb(242,172,41)" rx="2" ry="2" />
<text  x="1180.15" y="111.5" ></text>
</g>
<g >
<title>[libjvm.so] (191,919,190 samples, 0.02%)</title><rect x="1183.7" y="325" width="0.2" height="15.0" fill="rgb(207,12,2)" rx="2" ry="2" />
<text  x="1186.67" y="335.5" ></text>
</g>
<g >
<title>uhci_hub_status_data (191,919,190 samples, 0.02%)</title><rect x="1177.2" y="69" width="0.2" height="15.0" fill="rgb(250,211,50)" rx="2" ry="2" />
<text  x="1180.17" y="79.5" ></text>
</g>
<g >
<title>[libjvm.so] (1,170,383,826,680 samples, 99.46%)</title><rect x="10.1" y="405" width="1173.6" height="15.0" fill="rgb(207,12,2)" rx="2" ry="2" />
<text  x="13.06" y="415.5" >[libjvm.so]</text>
</g>
<g >
<title>__x64_sys_sched_yield (282,828,280 samples, 0.02%)</title><rect x="1188.8" y="309" width="0.2" height="15.0" fill="rgb(209,18,4)" rx="2" ry="2" />
<text  x="1191.75" y="319.5" ></text>
</g>
<g >
<title>[libjvm.so] (181,818,180 samples, 0.02%)</title><rect x="1183.7" y="309" width="0.2" height="15.0" fill="rgb(207,12,2)" rx="2" ry="2" />
<text  x="1186.68" y="319.5" ></text>
</g>
<g >
<title>x64_sys_call (414,141,410 samples, 0.04%)</title><rect x="1189.6" y="341" width="0.4" height="15.0" fill="rgb(247,194,46)" rx="2" ry="2" />
<text  x="1192.58" y="351.5" ></text>
</g>
<g >
<title>[libjvm.so] (181,818,180 samples, 0.02%)</title><rect x="1185.7" y="373" width="0.2" height="15.0" fill="rgb(207,12,2)" rx="2" ry="2" />
<text  x="1188.70" y="383.5" ></text>
</g>
<g >
<title>syscall_enter_from_user_mode (313,131,310 samples, 0.03%)</title><rect x="1189.3" y="341" width="0.3" height="15.0" fill="rgb(254,229,54)" rx="2" ry="2" />
<text  x="1192.27" y="351.5" ></text>
</g>
<g >
<title>run_timer_softirq (282,828,280 samples, 0.02%)</title><rect x="1177.1" y="149" width="0.3" height="15.0" fill="rgb(249,206,49)" rx="2" ry="2" />
<text  x="1180.08" y="159.5" ></text>
</g>
<g >
<title>__x64_sys_mprotect (868,686,860 samples, 0.07%)</title><rect x="1187.3" y="293" width="0.8" height="15.0" fill="rgb(209,21,5)" rx="2" ry="2" />
<text  x="1190.27" y="303.5" ></text>
</g>
<g >
<title>tlb_finish_mmu (858,585,850 samples, 0.07%)</title><rect x="1187.3" y="261" width="0.8" height="15.0" fill="rgb(251,212,50)" rx="2" ry="2" />
<text  x="1190.28" y="271.5" ></text>
</g>
<g >
<title>asm_sysvec_call_function_single (5,949,494,890 samples, 0.51%)</title><rect x="1177.6" y="229" width="6.0" height="15.0" fill="rgb(234,136,32)" rx="2" ry="2" />
<text  x="1180.61" y="239.5" ></text>
</g>
<g >
<title>x64_sys_call (101,010,100 samples, 0.01%)</title><rect x="1186.1" y="389" width="0.1" height="15.0" fill="rgb(247,194,46)" rx="2" ry="2" />
<text  x="1189.06" y="399.5" ></text>
</g>
<g >
<title>irqentry_exit (5,797,979,740 samples, 0.49%)</title><rect x="1177.8" y="197" width="5.8" height="15.0" fill="rgb(219,66,15)" rx="2" ry="2" />
<text  x="1180.76" y="207.5" ></text>
</g>
<g >
<title>rh_timer_func (191,919,190 samples, 0.02%)</title><rect x="1172.9" y="85" width="0.2" height="15.0" fill="rgb(242,172,41)" rx="2" ry="2" />
<text  x="1175.86" y="95.5" ></text>
</g>
<g >
<title>irqentry_exit (252,525,250 samples, 0.02%)</title><rect x="1177.4" y="197" width="0.2" height="15.0" fill="rgb(219,66,15)" rx="2" ry="2" />
<text  x="1180.36" y="207.5" ></text>
</g>
<g >
<title>[libjvm.so] (1,170,383,826,680 samples, 99.46%)</title><rect x="10.1" y="437" width="1173.6" height="15.0" fill="rgb(207,12,2)" rx="2" ry="2" />
<text  x="13.06" y="447.5" >[libjvm.so]</text>
</g>
<g >
<title>exit_to_user_mode_prepare (212,121,210 samples, 0.02%)</title><rect x="1173.1" y="149" width="0.2" height="15.0" fill="rgb(228,108,25)" rx="2" ry="2" />
<text  x="1176.06" y="159.5" ></text>
</g>
<g >
<title>flush_tlb_mm_range (858,585,850 samples, 0.07%)</title><rect x="1187.3" y="245" width="0.8" height="15.0" fill="rgb(215,48,11)" rx="2" ry="2" />
<text  x="1190.28" y="255.5" ></text>
</g>
<g >
<title>irq_exit_rcu (151,515,150 samples, 0.01%)</title><rect x="1177.6" y="197" width="0.2" height="15.0" fill="rgb(254,227,54)" rx="2" ry="2" />
<text  x="1180.61" y="207.5" ></text>
</g>
<g >
<title>[libjvm.so] (181,818,180 samples, 0.02%)</title><rect x="1187.1" y="357" width="0.2" height="15.0" fill="rgb(207,12,2)" rx="2" ry="2" />
<text  x="1190.08" y="367.5" ></text>
</g>
<g >
<title>do_sched_yield (414,141,410 samples, 0.04%)</title><rect x="1189.6" y="309" width="0.4" height="15.0" fill="rgb(214,43,10)" rx="2" ry="2" />
<text  x="1192.58" y="319.5" ></text>
</g>
<g >
<title>[libjvm.so] (151,515,150 samples, 0.01%)</title><rect x="1170.0" y="181" width="0.1" height="15.0" fill="rgb(207,12,2)" rx="2" ry="2" />
<text  x="1172.97" y="191.5" ></text>
</g>
<g >
<title>[libjvm.so] (1,080,808,070 samples, 0.09%)</title><rect x="1187.1" y="373" width="1.0" height="15.0" fill="rgb(207,12,2)" rx="2" ry="2" />
<text  x="1190.05" y="383.5" ></text>
</g>
<g >
<title>[libjvm.so] (1,170,383,826,680 samples, 99.46%)</title><rect x="10.1" y="421" width="1173.6" height="15.0" fill="rgb(207,12,2)" rx="2" ry="2" />
<text  x="13.06" y="431.5" >[libjvm.so]</text>
</g>
<g >
<title>__GI___futex_abstimed_wait_cancelable64 (141,414,140 samples, 0.01%)</title><rect x="1186.0" y="437" width="0.2" height="15.0" fill="rgb(215,48,11)" rx="2" ry="2" />
<text  x="1189.02" y="447.5" ></text>
</g>
<g >
<title>VM_Thread (3,676,767,640 samples, 0.31%)</title><rect x="1186.3" y="469" width="3.7" height="15.0" fill="rgb(220,73,17)" rx="2" ry="2" />
<text  x="1189.31" y="479.5" ></text>
</g>
<g >
<title>[libjvm.so] (2,090,909,070 samples, 0.18%)</title><rect x="1183.9" y="405" width="2.1" height="15.0" fill="rgb(207,12,2)" rx="2" ry="2" />
<text  x="1186.87" y="415.5" ></text>
</g>
<g >
<title>[libjvm.so] (171,717,170 samples, 0.01%)</title><rect x="1187.1" y="309" width="0.2" height="15.0" fill="rgb(207,12,2)" rx="2" ry="2" />
<text  x="1190.09" y="319.5" ></text>
</g>
<g >
<title>sysvec_call_function_single (5,949,494,890 samples, 0.51%)</title><rect x="1177.6" y="213" width="6.0" height="15.0" fill="rgb(221,78,18)" rx="2" ry="2" />
<text  x="1180.61" y="223.5" ></text>
</g>
<g >
<title>__irq_exit_rcu (151,515,150 samples, 0.01%)</title><rect x="1177.6" y="181" width="0.2" height="15.0" fill="rgb(227,101,24)" rx="2" ry="2" />
<text  x="1180.61" y="191.5" ></text>
</g>
<g >
<title>VM_Periodic_Tas (292,929,290 samples, 0.02%)</title><rect x="1186.0" y="469" width="0.3" height="15.0" fill="rgb(206,5,1)" rx="2" ry="2" />
<text  x="1189.02" y="479.5" ></text>
</g>
<g >
<title>exit_to_user_mode_prepare (131,313,130 samples, 0.01%)</title><rect x="1176.7" y="165" width="0.1" height="15.0" fill="rgb(228,108,25)" rx="2" ry="2" />
<text  x="1179.68" y="175.5" ></text>
</g>
<g >
<title>__do_softirq (535,353,530 samples, 0.05%)</title><rect x="1176.8" y="165" width="0.6" height="15.0" fill="rgb(246,191,45)" rx="2" ry="2" />
<text  x="1179.82" y="175.5" ></text>
</g>
<g >
<title>__irq_exit_rcu (141,414,140 samples, 0.01%)</title><rect x="1173.3" y="165" width="0.1" height="15.0" fill="rgb(227,101,24)" rx="2" ry="2" />
<text  x="1176.28" y="175.5" ></text>
</g>
<g >
<title>[perf-3726.map] (1,170,353,523,650 samples, 99.45%)</title><rect x="10.1" y="277" width="1173.6" height="15.0" fill="rgb(254,229,54)" rx="2" ry="2" />
<text  x="13.09" y="287.5" >[perf-3726.map]</text>
</g>
<g >
<title>irqentry_exit (131,313,130 samples, 0.01%)</title><rect x="1176.7" y="197" width="0.1" height="15.0" fill="rgb(219,66,15)" rx="2" ry="2" />
<text  x="1179.68" y="207.5" ></text>
</g>
<g >
<title>[libjvm.so] (181,818,180 samples, 0.02%)</title><rect x="1187.1" y="325" width="0.2" height="15.0" fill="rgb(207,12,2)" rx="2" ry="2" />
<text  x="1190.08" y="335.5" ></text>
</g>
<g >
<title>all (1,176,767,665,000 samples, 100%)</title><rect x="10.0" y="485" width="1180.0" height="15.0" fill="rgb(213,39,9)" rx="2" ry="2" />
<text  x="13.00" y="495.5" ></text>
</g>
<g >
<title>exit_to_user_mode_prepare (3,202,020,170 samples, 0.27%)</title><rect x="1173.4" y="149" width="3.2" height="15.0" fill="rgb(228,108,25)" rx="2" ry="2" />
<text  x="1176.42" y="159.5" ></text>
</g>
<g >
<title>[perf-3726.map] (424,585,854,340 samples, 36.08%)</title><rect x="750.9" y="229" width="425.8" height="15.0" fill="rgb(254,229,54)" rx="2" ry="2" />
<text  x="753.92" y="239.5" >[perf-3726.map]</text>
</g>
<g >
<title>start_thread (1,170,383,826,680 samples, 99.46%)</title><rect x="10.1" y="453" width="1173.6" height="15.0" fill="rgb(212,34,8)" rx="2" ry="2" />
<text  x="13.06" y="463.5" >start_thread</text>
</g>
<g >
<title>irqentry_exit_to_user_mode (5,797,979,740 samples, 0.49%)</title><rect x="1177.8" y="181" width="5.8" height="15.0" fill="rgb(254,229,54)" rx="2" ry="2" />
<text  x="1180.76" y="191.5" ></text>
</g>
<g >
<title>[unknown] (151,515,150 samples, 0.01%)</title><rect x="1186.0" y="453" width="0.2" height="15.0" fill="rgb(210,24,5)" rx="2" ry="2" />
<text  x="1189.02" y="463.5" ></text>
</g>
<g >
<title>sysvec_apic_timer_interrupt (575,757,570 samples, 0.05%)</title><rect x="1172.7" y="197" width="0.6" height="15.0" fill="rgb(220,69,16)" rx="2" ry="2" />
<text  x="1175.70" y="207.5" ></text>
</g>
<g >
<title>[perf-3726.map] (1,170,383,826,680 samples, 99.46%)</title><rect x="10.1" y="309" width="1173.6" height="15.0" fill="rgb(254,229,54)" rx="2" ry="2" />
<text  x="13.06" y="319.5" >[perf-3726.map]</text>
</g>
<g >
<title>do_syscall_64 (737,373,730 samples, 0.06%)</title><rect x="1189.3" y="357" width="0.7" height="15.0" fill="rgb(209,20,4)" rx="2" ry="2" />
<text  x="1192.26" y="367.5" ></text>
</g>
<g >
<title>irqentry_exit (212,121,210 samples, 0.02%)</title><rect x="1173.1" y="181" width="0.2" height="15.0" fill="rgb(219,66,15)" rx="2" ry="2" />
<text  x="1176.06" y="191.5" ></text>
</g>
<g >
<title>[perf-3726.map] (1,170,383,826,680 samples, 99.46%)</title><rect x="10.1" y="325" width="1173.6" height="15.0" fill="rgb(254,229,54)" rx="2" ry="2" />
<text  x="13.06" y="335.5" >[perf-3726.map]</text>
</g>
<g >
<title>usb_hcd_poll_rh_status (212,121,210 samples, 0.02%)</title><rect x="1177.1" y="85" width="0.3" height="15.0" fill="rgb(208,16,4)" rx="2" ry="2" />
<text  x="1180.15" y="95.5" ></text>
</g>
<g >
<title>__run_timers (282,828,280 samples, 0.02%)</title><rect x="1177.1" y="133" width="0.3" height="15.0" fill="rgb(206,5,1)" rx="2" ry="2" />
<text  x="1180.08" y="143.5" ></text>
</g>
<g >
<title>exit_to_user_mode_prepare (252,525,250 samples, 0.02%)</title><rect x="1177.4" y="165" width="0.2" height="15.0" fill="rgb(228,108,25)" rx="2" ry="2" />
<text  x="1180.36" y="175.5" ></text>
</g>
<g >
<title>do_syscall_64 (868,686,860 samples, 0.07%)</title><rect x="1187.3" y="325" width="0.8" height="15.0" fill="rgb(209,20,4)" rx="2" ry="2" />
<text  x="1190.27" y="335.5" ></text>
</g>
<g >
<title>asm_sysvec_call_function_single (3,343,434,310 samples, 0.28%)</title><rect x="1173.3" y="213" width="3.3" height="15.0" fill="rgb(234,136,32)" rx="2" ry="2" />
<text  x="1176.28" y="223.5" ></text>
</g>
<g >
<title>irqentry_exit_to_user_mode (252,525,250 samples, 0.02%)</title><rect x="1177.4" y="181" width="0.2" height="15.0" fill="rgb(254,229,54)" rx="2" ry="2" />
<text  x="1180.36" y="191.5" ></text>
</g>
<g >
<title>[libjvm.so] (191,919,190 samples, 0.02%)</title><rect x="1183.7" y="373" width="0.2" height="15.0" fill="rgb(207,12,2)" rx="2" ry="2" />
<text  x="1186.67" y="383.5" ></text>
</g>
<g >
<title>_raw_spin_unlock_irqrestore (191,919,190 samples, 0.02%)</title><rect x="1177.2" y="53" width="0.2" height="15.0" fill="rgb(228,106,25)" rx="2" ry="2" />
<text  x="1180.17" y="63.5" ></text>
</g>
<g >
<title>irq_exit_rcu (535,353,530 samples, 0.05%)</title><rect x="1176.8" y="197" width="0.6" height="15.0" fill="rgb(254,227,54)" rx="2" ry="2" />
<text  x="1179.82" y="207.5" ></text>
</g>
<g >
<title>__do_softirq (151,515,150 samples, 0.01%)</title><rect x="1177.6" y="165" width="0.2" height="15.0" fill="rgb(246,191,45)" rx="2" ry="2" />
<text  x="1180.61" y="175.5" ></text>
</g>
<g >
<title>sysvec_apic_timer_interrupt (787,878,780 samples, 0.07%)</title><rect x="1176.8" y="213" width="0.8" height="15.0" fill="rgb(220,69,16)" rx="2" ry="2" />
<text  x="1179.82" y="223.5" ></text>
</g>
<g >
<title>native_flush_tlb_multi (858,585,850 samples, 0.07%)</title><rect x="1187.3" y="229" width="0.8" height="15.0" fill="rgb(250,209,50)" rx="2" ry="2" />
<text  x="1190.28" y="239.5" ></text>
</g>
<g >
<title>irqentry_exit_to_user_mode (131,313,130 samples, 0.01%)</title><rect x="1176.7" y="181" width="0.1" height="15.0" fill="rgb(254,229,54)" rx="2" ry="2" />
<text  x="1179.68" y="191.5" ></text>
</g>
<g >
<title>__irq_exit_rcu (535,353,530 samples, 0.05%)</title><rect x="1176.8" y="181" width="0.6" height="15.0" fill="rgb(227,101,24)" rx="2" ry="2" />
<text  x="1179.82" y="191.5" ></text>
</g>
<g >
<title>[libjvm.so] (171,717,170 samples, 0.01%)</title><rect x="1187.1" y="277" width="0.2" height="15.0" fill="rgb(207,12,2)" rx="2" ry="2" />
<text  x="1190.09" y="287.5" ></text>
</g>
<g >
<title>start_thread (2,111,111,090 samples, 0.18%)</title><rect x="1183.9" y="453" width="2.1" height="15.0" fill="rgb(212,34,8)" rx="2" ry="2" />
<text  x="1186.87" y="463.5" ></text>
</g>
<g >
<title>[perf-3726.map] (1,170,363,624,660 samples, 99.46%)</title><rect x="10.1" y="293" width="1173.6" height="15.0" fill="rgb(254,229,54)" rx="2" ry="2" />
<text  x="13.08" y="303.5" >[perf-3726.map]</text>
</g>
<g >
<title>call_timer_fn (212,121,210 samples, 0.02%)</title><rect x="1177.1" y="117" width="0.3" height="15.0" fill="rgb(234,135,32)" rx="2" ry="2" />
<text  x="1180.15" y="127.5" ></text>
</g>
<g >
<title>__irq_exit_rcu (363,636,360 samples, 0.03%)</title><rect x="1172.7" y="165" width="0.4" height="15.0" fill="rgb(227,101,24)" rx="2" ry="2" />
<text  x="1175.70" y="175.5" ></text>
</g>
<g >
<title>asm_common_interrupt (141,414,140 samples, 0.01%)</title><rect x="1176.7" y="229" width="0.1" height="15.0" fill="rgb(227,105,25)" rx="2" ry="2" />
<text  x="1179.67" y="239.5" ></text>
</g>
<g >
<title>__mprotect (868,686,860 samples, 0.07%)</title><rect x="1187.3" y="357" width="0.8" height="15.0" fill="rgb(214,43,10)" rx="2" ry="2" />
<text  x="1190.27" y="367.5" ></text>
</g>
<g >
<title>call_timer_fn (202,020,200 samples, 0.02%)</title><rect x="1172.9" y="101" width="0.2" height="15.0" fill="rgb(234,135,32)" rx="2" ry="2" />
<text  x="1175.86" y="111.5" ></text>
</g>
<g >
<title>exit_to_user_mode_loop (202,020,200 samples, 0.02%)</title><rect x="1173.1" y="133" width="0.2" height="15.0" fill="rgb(224,90,21)" rx="2" ry="2" />
<text  x="1176.06" y="143.5" ></text>
</g>
<g >
<title>[libjvm.so] (1,170,383,826,680 samples, 99.46%)</title><rect x="10.1" y="357" width="1173.6" height="15.0" fill="rgb(207,12,2)" rx="2" ry="2" />
<text  x="13.06" y="367.5" >[libjvm.so]</text>
</g>
<g >
<title>[libjvm.so] (2,101,010,080 samples, 0.18%)</title><rect x="1183.9" y="421" width="2.1" height="15.0" fill="rgb(207,12,2)" rx="2" ry="2" />
<text  x="1186.87" y="431.5" ></text>
</g>
<g >
<title>entry_SYSCALL_64_after_hwframe (737,373,730 samples, 0.06%)</title><rect x="1189.3" y="373" width="0.7" height="15.0" fill="rgb(218,63,15)" rx="2" ry="2" />
<text  x="1192.26" y="383.5" ></text>
</g>
<g >
<title>_raw_spin_unlock_irqrestore (191,919,190 samples, 0.02%)</title><rect x="1172.9" y="37" width="0.2" height="15.0" fill="rgb(228,106,25)" rx="2" ry="2" />
<text  x="1175.86" y="47.5" ></text>
</g>
<g >
<title>exit_to_user_mode_loop (5,797,979,740 samples, 0.49%)</title><rect x="1177.8" y="149" width="5.8" height="15.0" fill="rgb(224,90,21)" rx="2" ry="2" />
<text  x="1180.76" y="159.5" ></text>
</g>
<g >
<title>[libjvm.so] (191,919,190 samples, 0.02%)</title><rect x="1183.7" y="437" width="0.2" height="15.0" fill="rgb(207,12,2)" rx="2" ry="2" />
<text  x="1186.67" y="447.5" ></text>
</g>
<g >
<title>[libjvm.so] (131,313,130 samples, 0.01%)</title><rect x="1183.7" y="293" width="0.2" height="15.0" fill="rgb(207,12,2)" rx="2" ry="2" />
<text  x="1186.72" y="303.5" ></text>
</g>
<g >
<title>exit_to_user_mode_prepare (5,797,979,740 samples, 0.49%)</title><rect x="1177.8" y="165" width="5.8" height="15.0" fill="rgb(228,108,25)" rx="2" ry="2" />
<text  x="1180.76" y="175.5" ></text>
</g>
<g >
<title>__do_softirq (141,414,140 samples, 0.01%)</title><rect x="1173.3" y="149" width="0.1" height="15.0" fill="rgb(246,191,45)" rx="2" ry="2" />
<text  x="1176.28" y="159.5" ></text>
</g>
<g >
<title>run_timer_softirq (222,222,220 samples, 0.02%)</title><rect x="1172.8" y="133" width="0.3" height="15.0" fill="rgb(249,206,49)" rx="2" ry="2" />
<text  x="1175.84" y="143.5" ></text>
</g>
<g >
<title>BenchmarkThread (1,170,444,432,740 samples, 99.46%)</title><rect x="10.0" y="469" width="1173.7" height="15.0" fill="rgb(228,108,25)" rx="2" ry="2" />
<text  x="13.00" y="479.5" >BenchmarkThread</text>
</g>
<g >
<title>[libjvm.so] (191,919,190 samples, 0.02%)</title><rect x="1183.7" y="341" width="0.2" height="15.0" fill="rgb(207,12,2)" rx="2" ry="2" />
<text  x="1186.67" y="351.5" ></text>
</g>
<g >
<title>asm_sysvec_apic_timer_interrupt (575,757,570 samples, 0.05%)</title><rect x="1172.7" y="213" width="0.6" height="15.0" fill="rgb(232,127,30)" rx="2" ry="2" />
<text  x="1175.70" y="223.5" ></text>
</g>
<g >
<title>__do_softirq (363,636,360 samples, 0.03%)</title><rect x="1172.7" y="149" width="0.4" height="15.0" fill="rgb(246,191,45)" rx="2" ry="2" />
<text  x="1175.70" y="159.5" ></text>
</g>
<g >
<title>entry_SYSCALL_64_after_hwframe (121,212,120 samples, 0.01%)</title><rect x="1186.0" y="421" width="0.2" height="15.0" fill="rgb(218,63,15)" rx="2" ry="2" />
<text  x="1189.04" y="431.5" ></text>
</g>
<g >
<title>entry_SYSCALL_64_after_hwframe (868,686,860 samples, 0.07%)</title><rect x="1187.3" y="341" width="0.8" height="15.0" fill="rgb(218,63,15)" rx="2" ry="2" />
<text  x="1190.27" y="351.5" ></text>
</g>
<g >
<title>do_syscall_64 (565,656,560 samples, 0.05%)</title><rect x="1188.5" y="341" width="0.5" height="15.0" fill="rgb(209,20,4)" rx="2" ry="2" />
<text  x="1191.47" y="351.5" ></text>
</g>
<g >
<title>exit_to_user_mode_loop (252,525,250 samples, 0.02%)</title><rect x="1177.4" y="149" width="0.2" height="15.0" fill="rgb(224,90,21)" rx="2" ry="2" />
<text  x="1180.36" y="159.5" ></text>
</g>
<g >
<title>irq_exit_rcu (363,636,360 samples, 0.03%)</title><rect x="1172.7" y="181" width="0.4" height="15.0" fill="rgb(254,227,54)" rx="2" ry="2" />
<text  x="1175.70" y="191.5" ></text>
</g>
<g >
<title>[libjvm.so] (141,414,140 samples, 0.01%)</title><rect x="1186.2" y="437" width="0.1" height="15.0" fill="rgb(207,12,2)" rx="2" ry="2" />
<text  x="1189.17" y="447.5" ></text>
</g>
<g >
<title>[perf-3726.map] (1,170,343,422,640 samples, 99.45%)</title><rect x="10.1" y="261" width="1173.6" height="15.0" fill="rgb(254,229,54)" rx="2" ry="2" />
<text  x="13.10" y="271.5" >[perf-3726.map]</text>
</g>
<g >
<title>[libjvm.so] (181,818,180 samples, 0.02%)</title><rect x="1187.1" y="341" width="0.2" height="15.0" fill="rgb(207,12,2)" rx="2" ry="2" />
<text  x="1190.08" y="351.5" ></text>
</g>
<g >
<title>[perf-3726.map] (1,170,383,826,680 samples, 99.46%)</title><rect x="10.1" y="341" width="1173.6" height="15.0" fill="rgb(254,229,54)" rx="2" ry="2" />
<text  x="13.06" y="351.5" >[perf-3726.map]</text>
</g>
<g >
<title>do_sched_yield (282,828,280 samples, 0.02%)</title><rect x="1188.8" y="293" width="0.2" height="15.0" fill="rgb(214,43,10)" rx="2" ry="2" />
<text  x="1191.75" y="303.5" ></text>
</g>
<g >
<title>smp_call_function_many_cond (858,585,850 samples, 0.07%)</title><rect x="1187.3" y="197" width="0.8" height="15.0" fill="rgb(220,71,17)" rx="2" ry="2" />
<text  x="1190.28" y="207.5" ></text>
</g>
<g >
<title>[perf-3726.map] (1,170,262,614,560 samples, 99.45%)</title><rect x="10.2" y="245" width="1173.5" height="15.0" fill="rgb(254,229,54)" rx="2" ry="2" />
<text  x="13.18" y="255.5" >[perf-3726.map]</text>
</g>
<g >
<title>start_thread (141,414,140 samples, 0.01%)</title><rect x="1186.2" y="453" width="0.1" height="15.0" fill="rgb(212,34,8)" rx="2" ry="2" />
<text  x="1189.17" y="463.5" ></text>
</g>
<g >
<title>do_syscall_64 (121,212,120 samples, 0.01%)</title><rect x="1186.0" y="405" width="0.2" height="15.0" fill="rgb(209,20,4)" rx="2" ry="2" />
<text  x="1189.04" y="415.5" ></text>
</g>
<g >
<title>[libjvm.so] (1,170,383,826,680 samples, 99.46%)</title><rect x="10.1" y="373" width="1173.6" height="15.0" fill="rgb(207,12,2)" rx="2" ry="2" />
<text  x="13.06" y="383.5" >[libjvm.so]</text>
</g>
<g >
<title>x64_sys_call (282,828,280 samples, 0.02%)</title><rect x="1188.8" y="325" width="0.2" height="15.0" fill="rgb(247,194,46)" rx="2" ry="2" />
<text  x="1191.75" y="335.5" ></text>
</g>
<g >
<title>C2_CompilerThre (202,020,200 samples, 0.02%)</title><rect x="1183.7" y="469" width="0.2" height="15.0" fill="rgb(248,199,47)" rx="2" ry="2" />
<text  x="1186.66" y="479.5" ></text>
</g>
<g >
<title>[libjvm.so] (2,060,606,040 samples, 0.18%)</title><rect x="1183.9" y="389" width="2.0" height="15.0" fill="rgb(207,12,2)" rx="2" ry="2" />
<text  x="1186.87" y="399.5" ></text>
</g>
<g >
<title>[libjvm.so] (2,676,767,650 samples, 0.23%)</title><rect x="1186.4" y="389" width="2.6" height="15.0" fill="rgb(207,12,2)" rx="2" ry="2" />
<text  x="1189.35" y="399.5" ></text>
</g>
<g >
<title>[libjvm.so] (171,717,170 samples, 0.01%)</title><rect x="1187.1" y="293" width="0.2" height="15.0" fill="rgb(207,12,2)" rx="2" ry="2" />
<text  x="1190.09" y="303.5" ></text>
</g>
<g >
<title>[libjvm.so] (191,919,190 samples, 0.02%)</title><rect x="1183.7" y="405" width="0.2" height="15.0" fill="rgb(207,12,2)" rx="2" ry="2" />
<text  x="1186.67" y="415.5" ></text>
</g>
<g >
<title>[libjvm.so] (1,363,636,350 samples, 0.12%)</title><rect x="1169.8" y="213" width="1.4" height="15.0" fill="rgb(207,12,2)" rx="2" ry="2" />
<text  x="1172.79" y="223.5" ></text>
</g>
<g >
<title>[libjvm.so] (3,636,363,600 samples, 0.31%)</title><rect x="1186.4" y="437" width="3.6" height="15.0" fill="rgb(207,12,2)" rx="2" ry="2" />
<text  x="1189.35" y="447.5" ></text>
</g>
<g >
<title>[perf-3726.map] (1,464,646,450 samples, 0.12%)</title><rect x="1171.2" y="213" width="1.4" height="15.0" fill="rgb(254,229,54)" rx="2" ry="2" />
<text  x="1174.16" y="223.5" ></text>
</g>
<g >
<title>__sched_yield (868,686,860 samples, 0.07%)</title><rect x="1188.2" y="373" width="0.8" height="15.0" fill="rgb(213,40,9)" rx="2" ry="2" />
<text  x="1191.17" y="383.5" ></text>
</g>
<g >
<title>entry_SYSCALL_64_after_hwframe (565,656,560 samples, 0.05%)</title><rect x="1188.5" y="357" width="0.5" height="15.0" fill="rgb(218,63,15)" rx="2" ry="2" />
<text  x="1191.47" y="367.5" ></text>
</g>
<g >
<title>[libjvm.so] (191,919,190 samples, 0.02%)</title><rect x="1183.7" y="389" width="0.2" height="15.0" fill="rgb(207,12,2)" rx="2" ry="2" />
<text  x="1186.67" y="399.5" ></text>
</g>
<g >
<title>x64_sys_call (868,686,860 samples, 0.07%)</title><rect x="1187.3" y="309" width="0.8" height="15.0" fill="rgb(247,194,46)" rx="2" ry="2" />
<text  x="1190.27" y="319.5" ></text>
</g>
<g >
<title>[libjvm.so] (191,919,190 samples, 0.02%)</title><rect x="1183.7" y="357" width="0.2" height="15.0" fill="rgb(207,12,2)" rx="2" ry="2" />
<text  x="1186.67" y="367.5" ></text>
</g>
<g >
<title>start_thread (191,919,190 samples, 0.02%)</title><rect x="1183.7" y="453" width="0.2" height="15.0" fill="rgb(212,34,8)" rx="2" ry="2" />
<text  x="1186.67" y="463.5" ></text>
</g>
<g >
<title>start_thread (3,636,363,600 samples, 0.31%)</title><rect x="1186.4" y="453" width="3.6" height="15.0" fill="rgb(212,34,8)" rx="2" ry="2" />
<text  x="1189.35" y="463.5" ></text>
</g>
<g >
<title>[libjvm.so] (111,111,110 samples, 0.01%)</title><rect x="1186.2" y="405" width="0.1" height="15.0" fill="rgb(207,12,2)" rx="2" ry="2" />
<text  x="1189.20" y="415.5" ></text>
</g>
<g >
<title>syscall_enter_from_user_mode (262,626,260 samples, 0.02%)</title><rect x="1188.5" y="325" width="0.2" height="15.0" fill="rgb(254,229,54)" rx="2" ry="2" />
<text  x="1191.48" y="335.5" ></text>
</g>
<g >
<title>on_each_cpu_cond_mask (858,585,850 samples, 0.07%)</title><rect x="1187.3" y="213" width="0.8" height="15.0" fill="rgb(243,178,42)" rx="2" ry="2" />
<text  x="1190.28" y="223.5" ></text>
</g>
<g >
<title>sysvec_call_function_single (3,343,434,310 samples, 0.28%)</title><rect x="1173.3" y="197" width="3.3" height="15.0" fill="rgb(221,78,18)" rx="2" ry="2" />
<text  x="1176.28" y="207.5" ></text>
</g>
<g >
<title>irq_exit_rcu (141,414,140 samples, 0.01%)</title><rect x="1173.3" y="181" width="0.1" height="15.0" fill="rgb(254,227,54)" rx="2" ry="2" />
<text  x="1176.28" y="191.5" ></text>
</g>
<g >
<title>asm_sysvec_apic_timer_interrupt (787,878,780 samples, 0.07%)</title><rect x="1176.8" y="229" width="0.8" height="15.0" fill="rgb(232,127,30)" rx="2" ry="2" />
<text  x="1179.82" y="239.5" ></text>
</g>
<g >
<title>__run_timers (222,222,220 samples, 0.02%)</title><rect x="1172.8" y="117" width="0.3" height="15.0" fill="rgb(206,5,1)" rx="2" ry="2" />
<text  x="1175.84" y="127.5" ></text>
</g>
<g >
<title>[libjvm.so] (1,170,383,826,680 samples, 99.46%)</title><rect x="10.1" y="389" width="1173.6" height="15.0" fill="rgb(207,12,2)" rx="2" ry="2" />
<text  x="13.06" y="399.5" >[libjvm.so]</text>
</g>
<g >
<title>exit_to_user_mode_loop (3,202,020,170 samples, 0.27%)</title><rect x="1173.4" y="133" width="3.2" height="15.0" fill="rgb(224,90,21)" rx="2" ry="2" />
<text  x="1176.42" y="143.5" ></text>
</g>
<g >
<title>__x64_sys_sched_yield (414,141,410 samples, 0.04%)</title><rect x="1189.6" y="325" width="0.4" height="15.0" fill="rgb(209,18,4)" rx="2" ry="2" />
<text  x="1192.58" y="335.5" ></text>
</g>
<g >
<title>[libjvm.so] (3,636,363,600 samples, 0.31%)</title><rect x="1186.4" y="421" width="3.6" height="15.0" fill="rgb(207,12,2)" rx="2" ry="2" />
<text  x="1189.35" y="431.5" ></text>
</g>
<g >
<title>GC_task_thread# (2,121,212,100 samples, 0.18%)</title><rect x="1183.9" y="469" width="2.1" height="15.0" fill="rgb(225,96,22)" rx="2" ry="2" />
<text  x="1186.86" y="479.5" ></text>
</g>
<g >
<title>uhci_hub_status_data (191,919,190 samples, 0.02%)</title><rect x="1172.9" y="53" width="0.2" height="15.0" fill="rgb(250,211,50)" rx="2" ry="2" />
<text  x="1175.86" y="63.5" ></text>
</g>
<g >
<title>__memset_avx2_unaligned_erms (1,010,101,000 samples, 0.09%)</title><rect x="1170.1" y="197" width="1.0" height="15.0" fill="rgb(223,84,20)" rx="2" ry="2" />
<text  x="1173.12" y="207.5" ></text>
</g>
<g >
<title>[libjvm.so] (191,919,190 samples, 0.02%)</title><rect x="1183.7" y="421" width="0.2" height="15.0" fill="rgb(207,12,2)" rx="2" ry="2" />
<text  x="1186.67" y="431.5" ></text>
</g>
<g >
<title>[libjvm.so] (2,111,111,090 samples, 0.18%)</title><rect x="1183.9" y="437" width="2.1" height="15.0" fill="rgb(207,12,2)" rx="2" ry="2" />
<text  x="1186.87" y="447.5" ></text>
</g>
<g >
<title>[libjvm.so] (101,010,100 samples, 0.01%)</title><rect x="1185.8" y="357" width="0.1" height="15.0" fill="rgb(207,12,2)" rx="2" ry="2" />
<text  x="1188.77" y="367.5" ></text>
</g>
<g >
<title>irqentry_exit (3,202,020,170 samples, 0.27%)</title><rect x="1173.4" y="181" width="3.2" height="15.0" fill="rgb(219,66,15)" rx="2" ry="2" />
<text  x="1176.42" y="191.5" ></text>
</g>
<g >
<title>irqentry_exit_to_user_mode (3,202,020,170 samples, 0.27%)</title><rect x="1173.4" y="165" width="3.2" height="15.0" fill="rgb(254,229,54)" rx="2" ry="2" />
<text  x="1176.42" y="175.5" ></text>
</g>
<g >
<title>__sched_yield (959,595,950 samples, 0.08%)</title><rect x="1189.0" y="389" width="1.0" height="15.0" fill="rgb(213,40,9)" rx="2" ry="2" />
<text  x="1192.04" y="399.5" ></text>
</g>
<g >
<title>usb_hcd_poll_rh_status (191,919,190 samples, 0.02%)</title><rect x="1172.9" y="69" width="0.2" height="15.0" fill="rgb(208,16,4)" rx="2" ry="2" />
<text  x="1175.86" y="79.5" ></text>
</g>
<g >
<title>do_mprotect_pkey (868,686,860 samples, 0.07%)</title><rect x="1187.3" y="277" width="0.8" height="15.0" fill="rgb(252,218,52)" rx="2" ry="2" />
<text  x="1190.27" y="287.5" ></text>
</g>
<g >
<title>[libjvm.so] (141,414,140 samples, 0.01%)</title><rect x="1186.2" y="421" width="0.1" height="15.0" fill="rgb(207,12,2)" rx="2" ry="2" />
<text  x="1189.17" y="431.5" ></text>
</g>
<g >
<title>[libjvm.so] (3,636,363,600 samples, 0.31%)</title><rect x="1186.4" y="405" width="3.6" height="15.0" fill="rgb(207,12,2)" rx="2" ry="2" />
<text  x="1189.35" y="415.5" ></text>
</g>
<g >
<title>irqentry_exit_to_user_mode (212,121,210 samples, 0.02%)</title><rect x="1173.1" y="165" width="0.2" height="15.0" fill="rgb(254,229,54)" rx="2" ry="2" />
<text  x="1176.06" y="175.5" ></text>
</g>
<g >
<title>[libjvm.so] (222,222,220 samples, 0.02%)</title><rect x="1169.9" y="197" width="0.2" height="15.0" fill="rgb(207,12,2)" rx="2" ry="2" />
<text  x="1172.89" y="207.5" ></text>
</g>
</g>
</svg>
